<?xml version="1.0" encoding="UTF-8"?>
<svg id="Capa_2" data-name="Capa 2" xmlns="http://www.w3.org/2000/svg" viewBox="0 0 93.75 93.75">
  <defs>
    <style>
      .cls-1 {
        fill: #d3d3d3;
      }

      .cls-1, .cls-2, .cls-3, .cls-4, .cls-5 {
        stroke-width: 0px;
      }

      .cls-2 {
        fill: #9c9c9c;
      }

      .cls-3 {
        fill: #ffffff00;
      }

      .cls-4 {
        fill: #7e4735;
      }

      .cls-5 {
        fill: #f4f3f4;
      }
    </style>
  </defs>
  <g id="Capa_1-2" data-name="Capa 1">
    <g>
      <path class="cls-3" d="M46.5,93.7c-14.73,0-29.47-.04-44.2.05C.42,93.76,0,93.33,0,91.45c.07-29.72.07-59.44,0-89.16C0,.42.42,0,2.3,0c29.72.07,59.44.07,89.16,0,1.87,0,2.3.42,2.3,2.3-.07,29.72-.07,59.44,0,89.16,0,1.87-.42,2.31-2.3,2.3-14.98-.09-29.97-.05-44.95-.05Z"/>
      <path class="cls-1" d="M60.07,75c-.03,3.74-.03,7.49-.09,11.23-.05,2.93-1.21,4.54-4.53,4.52-16.48-.1-32.95-.08-49.43-.01-3.18.01-4.51-1.25-4.49-4.44.06-16.48-.2-32.96.14-49.42.15-7.5,2.02-14.78,6.61-21.03,2.78-3.78,6.27-6.36,11.27-6.09,1.18-.59,2.45-.3,3.68-.3,15.21-.02,30.42-.02,45.63,0,1.23,0,2.49-.25,3.69.27.45,1.21-.43,1.91-1.1,2.54-7.8,7.3-9.49,16.92-10.34,26.89-.34,4,.79,7.93.42,11.93-1.04,4.44-.14,8.94-.38,13.41-.17,3.1.31,6.23-.36,9.32-.18.43-.42.84-.71,1.21Z"/>
      <path class="cls-5" d="M60.07,75c-.03-.25-.05-.51-.08-.76,3.68-1.89,7.43-.94,10.7-.67-6.64-5.36-11.01-14.92-9.99-22.51-.96-7.67-1.16-15.31.81-22.89,1.81-6.99,4.45-13.44,11.5-18.43-18.51,0-35.99,0-53.47,0,1.14-1.16,2.59-.68,3.91-.68,15.96-.03,31.92,0,47.87-.04,6.78-.02,11.93,2.39,15.21,8.69,5.17,9.94,6.48,20.39,5.23,31.39-.74,6.52-2.56,12.6-5.85,18.26-2.93,5.03-7.2,7.7-13.11,7.62-4.24-.05-8.48,0-12.72,0Z"/>
      <path class="cls-2" d="M60.7,51.07c1.16,8.92,4,17.01,12,23.17-4.65,0-8.68,0-12.71,0,0-6.57-.03-13.13.02-19.7,0-1.17-.49-2.51.69-3.47Z"/>
      <path class="cls-4" d="M82.48,41.85c.07,4.12-.61,7.65-2.76,10.71-2.18,3.12-4.99,3.08-7.32.05-3.64-4.75-3.59-16.75.09-21.38,2.21-2.78,5-2.83,7.12.05,2.4,3.25,2.94,7.06,2.86,10.56Z"/>
    </g>
  </g>
</svg>