<?xml version="1.0" encoding="UTF-8"?>
<svg id="Capa_2" data-name="Capa 2" xmlns="http://www.w3.org/2000/svg" viewBox="0 0 93.75 93.75">
  <defs>
    <style>
      .cls-1 {
        fill: #d3d3d3;
      }

      .cls-1, .cls-2, .cls-3, .cls-4, .cls-5, .cls-6 {
        stroke-width: 0px;
      }

      .cls-2 {
        fill: #646464;
      }

      .cls-3 {
        fill: #e7e6e6;
      }

      .cls-4 {
        fill: #9c9c9c;
      }

      .cls-5 {
        fill: #9c9b9b;
      }

      .cls-6 {
        fill: #ffffff00;
      }
    </style>
  </defs>
  <g id="Capa_1-2" data-name="Capa 1">
    <g>
      <path class="cls-6" d="M46.88,93.7c-14.86,0-29.72-.04-44.58.05C.42,93.76,0,93.33,0,91.45c.07-29.72.07-59.44,0-89.16C0,.42.42,0,2.3,0c29.72.07,59.44.07,89.16,0,1.87,0,2.3.42,2.3,2.3-.07,29.72-.07,59.44,0,89.16,0,1.87-.42,2.31-2.3,2.3-14.86-.09-29.72-.05-44.58-.05Z"/>
      <path class="cls-5" d="M15.1,28.58c.15-1.48,1.2-2.41,2.14-3.39,6.3-6.58,12.68-13.09,18.91-19.74,2.85-3.05,5.66-5.7,10.25-3.79,5.49,3.14,7.24,8.49,6.24,14.46-1.83,10.95-9.37,17.53-17.14,23.97-2.8,2.32-3.91,4.77-3.83,8.31.28,12.63-1.25,9.32,7.69,18.44,1.57,1.6,3.21,3.13,4.73,4.77.9.97,2.14,1.82,1.74,3.47-1.53,1.16-3.14.5-4.66.09-8.67-2.36-17.34-4.73-26.01-7.09-4.49-1.22-4.65-2.15-3.97-6.74,1.04-7.09,5.45-11.08,11.33-14.32,6.49-3.57,6.36-3.76.47-8.38-1.86-1.46-3.74-2.91-5.52-4.49-1.68-1.5-2.67-3.25-2.36-5.58Z"/>
      <path class="cls-1" d="M45.58,75.1c-3.1-4.56-7.42-7.96-11.27-11.8-2.46-2.45-3.37-5.03-3.71-8.51-.76-7.88.68-14.37,7.93-18.75,1.88-1.14,3.37-2.92,5.07-4.38,6.14-5.25,7.31-12.71,8.87-19.98.27-1.28-.45-2.42-1.19-3.44-1.6-2.21-3.24-4.39-4.87-6.58,7.09,1.28,13.77,3.23,17.29,10.44-.44,5.27-2.19,10.3-2.87,15.53-2.6,8.29-5.18,16.59-7.69,24.9-1.49,4.94-.95,6.4,3.64,8.55,6.18,2.89,12.33,5.85,18.61,8.55,1.04.45,2.54.52,2.67,2.17-2.75,2.18-6.12,1.77-9.26,2.15-7.28.87-14.52,2.12-21.87,2.45-.68-.2-1.23-.52-1.34-1.3Z"/>
      <path class="cls-2" d="M45.58,75.1c.28.23.57.46.85.7,2.34,4.62,1.17,9.47.87,14.25-.08,1.31-1.13,1.82-2.43,1.77-5.22-.19-10.45.38-15.66-.31-12.38-3.1-22.08-9.52-26.6-22.03-2.34-6.47-.69-13.06,1.83-18.82,3.27-7.46,7.18-14.68,10.66-22.09,1.77,5.91,7.56,7.86,11.48,11.65.62.6,1.39,1.04,2.08,1.56,1.58,1.21,1.26,2.07-.38,2.98-2.94,1.63-5.68,3.65-8.69,5.09-6.29,3-6.64,9.14-8.14,14.68-.36,1.34.85,1.73,1.76,1.98,10.78,2.89,21.57,5.73,32.36,8.58Z"/>
      <path class="cls-3" d="M78.11,71.33c-6.63-1.44-12.35-5.08-18.42-7.84-9.14-4.15-9.18-4.44-6.46-14.25,2.02-7.27,4.51-14.41,6.79-21.61,1.67-.86,2.84.33,4.09,1.05,7.68,4.37,15.15,9.11,22.94,13.3.95,5.03,1.9,10.06,2.86,15.1-2.59,4.99-6.58,8.94-9.86,13.42-.44.6-1.11.98-1.94.83Z"/>
      <path class="cls-5" d="M78.11,71.33c3.17-3.97,6.36-7.93,9.5-11.93.69-.87,1.14-1.94,2.31-2.32.75,3.77,1.56,7.52,2.24,11.3.42,2.33-.22,4.5-1.75,6.29-4.14,4.82-8.33,9.59-12.54,14.36-1.82,2.06-4.1,3.17-6.9,3.17-12.72,0-25.44.04-38.16.03-1.22,0-2.52.16-3.59-.72,4.7,0,9.41-.1,14.11.05,2.39.08,3.34-.66,3.23-3.14-.18-4.21-.1-8.42-.12-12.63,9.88-1.27,19.75-2.55,29.63-3.8.74-.09,1.49-.03,2.04-.66Z"/>
      <path class="cls-4" d="M87.05,41.98c-1.23,1.46-2-.09-2.79-.54-8.11-4.56-16.17-9.19-24.25-13.81.81-5.28,1.11-10.68,3.67-15.54.34.66.74,1.31,1.02,1.99,3.44,8.42,9.16,14.98,16.38,20.4,2.59,1.94,4.97,4.21,5.97,7.49Z"/>
    </g>
  </g>
</svg>