<?xml version="1.0" encoding="UTF-8"?>
<svg id="Capa_2" data-name="Capa 2" xmlns="http://www.w3.org/2000/svg" viewBox="0 0 93.75 93.75">
  <defs>
    <style>
      .cls-1 {
        fill: #e73936;
      }

      .cls-1, .cls-2, .cls-3, .cls-4, .cls-5 {
        stroke-width: 0px;
      }

      .cls-2 {
        fill: #d3d3d3;
      }

      .cls-3 {
        fill: #9d9d9c;
      }

      .cls-4 {
        fill: #9c9b9b;
      }

      .cls-5 {
        fill: none;
      }
    </style>
    <mask id="hole-mask-1">
      <rect width="100%" height="100%" fill="white"/>
      <circle cx="22.43" cy="25.92" r="9.63" fill="black"/>
    </mask>
    <mask id="hole-mask-2">
      <rect width="100%" height="100%" fill="white"/>
      <circle cx="71.12" cy="25.92" r="9.73" fill="black"/>
    </mask>
  </defs>
  <g id="Capa_1-2" data-name="Capa 1">
    <g>
      <rect width="100%" height="100%" fill="none"/>
      <path class="cls-1" d="M36.81,50.27c-2.77-3.76-5.82-4.96-10.89-3.82-11.36,2.54-22.35-5.51-24.24-16.73C-.24,18.34,7.52,7.16,18.61,5.31c11.76-1.96,22.58,5.45,24.69,16.96.5,2.72.87,5.72-.29,8.13-2.27,4.71.25,7.1,3.58,9.42.79,1.26-.05,2.15-.8,2.91-2.6,2.61-4.96,5.47-7.96,7.67-.36.13-.7.07-1.01-.13Z" mask="url(#hole-mask-1)"/>
      <path class="cls-1" d="M47.12,39.81c3.27-2.36,4.97-4.58,3.55-9.45-3.29-11.29,5.34-23.42,16.88-25.08,12.46-1.8,23.39,6.57,24.55,18.81,1.14,11.93-8.44,22.81-20.29,22.98-1.48.02-3.17.09-4.41-.54-4.9-2.49-7.79.16-10.48,3.67-3.65-1.01-9.45-7.16-9.81-10.38Z" mask="url(#hole-mask-2)"/>
      <path class="cls-2" d="M47.12,39.81c2.39,4.29,6.33,7.12,9.81,10.37,7.43,7.56,14.88,15.1,22.28,22.68,4.55,4.66,5.08,11.19,1.45,15.53-1.76,2.1-3.04,2.57-5.28.26-8.32-8.62-16.88-17.01-25.37-25.46-1.03-1.03-1.85-2.43-3.57-2.5-2.71-2.38-5.1-5.08-7.66-7.6-.78-.77-1.69-1.53-1.42-2.85,2.76-3.75,6.95-6.23,9.23-10.4.18-.06.35-.07.53-.02Z"/>
      <path class="cls-4" d="M37.35,50.23c2.38,2.49,4.78,4.96,7.14,7.47.82.87,2,1.53,1.95,2.99-9.37,9.32-18.8,18.57-28.04,28.02-2.13,2.18-3.38,2.08-5.23-.13-3.84-4.59-3.69-10.62.76-15.17,7.58-7.76,15.25-15.42,22.88-23.12.18-.07.36-.08.54-.04Z"/>
      <path class="cls-3" d="M46.53,47.18c2.15,0,3.51.97,3.62,2.98.11,2.06-1.46,3.23-3.2,3.45-1.97.24-3.17-1.27-3.38-3.11-.24-2.09,1.1-3.09,2.96-3.32Z"/>
    </g>
  </g>
</svg>
